HIERARCHY
ROOT root
{
	OFFSET 0.000000 0.000000 0.000000
	CHANNELS 6 Xposition Yposition Zposition Zrotation Yrotation Xrotation
	JOINT lhip
	{
		OFFSET 0.058581 -0.082280 -0.017664
		CHANNELS 3 Zrotation Yrotation Xrotation
		JOINT lknee
		{
			OFFSET 0.043451 -0.386469 0.008037
			CHANNELS 3 Zrotation Yrotation Xrotation
			JOINT lankle
			{
				OFFSET -0.014790 -0.426874 -0.037428
				CHANNELS 3 Zrotation Yrotation Xrotation
				JOINT ltoe
				{
					OFFSET 0.041054 -0.060286 0.122042
					CHANNELS 3 Zrotation Yrotation Xrotation
					End Site
					{
						OFFSET 0.000000 0.000000 0.000000
					}
				}
			}
		}
	}
	JOINT rhip
	{
		OFFSET -0.060310 -0.090513 -0.013543
		CHANNELS 3 Zrotation Yrotation Xrotation
		JOINT rknee
		{
			OFFSET -0.043257 -0.383688 -0.004843
			CHANNELS 3 Zrotation Yrotation Xrotation
			JOINT rankle
			{
				OFFSET 0.019056 -0.420046 -0.034562
				CHANNELS 3 Zrotation Yrotation Xrotation
				JOINT rtoe
				{
					OFFSET -0.034840 -0.062106 0.130323
					CHANNELS 3 Zrotation Yrotation Xrotation
					End Site
					{
						OFFSET 0.000000 0.000000 0.000000
					}
				}
			}
		}
	}
	JOINT lowerback
	{
		OFFSET 0.004439 0.124404 -0.038385
		CHANNELS 3 Zrotation Yrotation Xrotation
		JOINT upperback
		{
			OFFSET 0.004488 0.137956 0.026820
			CHANNELS 3 Zrotation Yrotation Xrotation
			JOINT chest
			{
				OFFSET -0.002265 0.056032 0.002855
				CHANNELS 3 Zrotation Yrotation Xrotation
				JOINT lowerneck
				{
					OFFSET -0.013390 0.211636 -0.033468
					CHANNELS 3 Zrotation Yrotation Xrotation
					JOINT upperneck
					{
						OFFSET 0.010113 0.088937 0.050410
						CHANNELS 3 Zrotation Yrotation Xrotation
						End Site
						{
							OFFSET 0.000000 0.000000 0.000000
						}
					}
				}
				JOINT lclavicle
				{
					OFFSET 0.071702 0.114000 -0.018898
					CHANNELS 3 Zrotation Yrotation Xrotation
					JOINT lshoulder
					{
						OFFSET 0.122921 0.045205 -0.019046
						CHANNELS 3 Zrotation Yrotation Xrotation
						JOINT lelbow
						{
							OFFSET 0.255332 -0.015649 -0.022946
							CHANNELS 3 Zrotation Yrotation Xrotation
							JOINT lwrist
							{
								OFFSET 0.265709 0.012698 -0.007375
								CHANNELS 3 Zrotation Yrotation Xrotation
								End Site
								{
									OFFSET 0.000000 0.000000 0.000000
								}
							}
						}
					}
				}
				JOINT rclavicle
				{
					OFFSET -0.082954 0.112472 -0.023707
					CHANNELS 3 Zrotation Yrotation Xrotation
					JOINT rshoulder
					{
						OFFSET -0.113228 0.046853 -0.008472
						CHANNELS 3 Zrotation Yrotation Xrotation
						JOINT relbow
						{
							OFFSET -0.260127 -0.014369 -0.031269
							CHANNELS 3 Zrotation Yrotation Xrotation
							JOINT rwrist
							{
								OFFSET -0.269108 0.006794 -0.006027
								CHANNELS 3 Zrotation Yrotation Xrotation
								End Site
								{
									OFFSET 0.000000 0.000000 0.000000
								}
							}
						}
					}
				}
			}
		}
	}
}
MOTION
Frames: 16
Frame Time: 0.033333
-0.506151 0.244721 1.003303 92.502533 -1.260083 86.950750 2.039961 -1.185746 4.483890 -3.749125 -3.187078 3.679187 2.474813 9.433422 -7.792789 0.000000 -0.000000 0.000000 -4.910786 -2.729893 -1.335808 0.762226 0.383597 13.468516 3.131647 -6.263217 -9.369235 0.000000 -0.000000 0.000000 -2.090739 0.415855 0.684631 1.996518 -3.213055 4.537192 -1.307542 -0.279312 0.838445 1.277904 5.996176 13.577067 0.402997 4.255924 24.044559 -24.617531 4.616187 3.004712 -54.442491 -7.238027 20.600891 -101.820941 -82.028818 114.942800 9.027266 -5.630969 -37.968795 26.196695 -2.179887 1.622965 51.737256 3.802532 27.730005 157.070337 81.913296 -177.629105 5.230404 14.111207 2.925500 
-0.505886 0.246407 1.002987 92.467879 -1.186203 87.123797 2.049229 -0.375730 4.003442 -3.710409 -3.786377 4.289119 2.494322 9.274381 -8.171752 0.000000 -0.000000 0.000000 -4.961132 -2.780547 -1.460796 0.840816 0.658546 13.391132 3.802175 -6.569553 -9.260326 0.000000 -0.000000 0.000000 -1.969243 0.442635 1.015983 1.979658 -3.104073 3.879719 -1.427275 -0.428490 1.237676 1.505143 5.482439 12.853396 -0.122773 3.539620 24.966142 -24.497001 4.003837 2.402001 -52.396955 -6.877900 21.403586 -95.020766 -77.289999 113.219665 17.869605 -5.150249 -20.656185 26.032092 -1.632847 0.905389 51.831086 3.228792 27.150850 150.504495 81.636807 175.813515 3.211318 14.278825 2.760609 
-0.505568 0.248065 1.002926 92.494121 -1.132957 87.145007 1.960447 -0.314888 3.887381 -3.669438 -3.897859 4.569301 2.608837 9.415599 -8.243983 0.000000 -0.000000 0.000000 -5.003856 -2.878760 -1.386157 0.874493 0.813569 13.298224 3.867521 -6.651741 -9.147154 0.000000 -0.000000 0.000000 -2.100852 0.497480 1.120459 1.960721 -3.147556 3.826595 -1.338178 -0.331253 1.354173 1.350314 5.390691 12.683165 0.229885 3.834422 24.922954 -24.607349 3.628871 2.361385 -52.267176 -7.076640 21.678731 -95.875498 -77.636974 113.163489 21.887446 -4.017573 -19.448103 26.217890 -1.375842 0.710016 51.592630 3.123637 27.204514 151.726630 81.708937 176.547266 2.529975 14.318638 3.290229 
-0.504617 0.249936 1.002986 92.356073 -1.040624 87.222122 1.915582 -0.570221 3.997830 -3.636256 -3.440410 4.390642 2.599218 9.355878 -8.217363 0.000000 -0.000000 0.000000 -4.968211 -2.705747 -1.314846 0.755600 0.603370 13.117043 3.948858 -6.563801 -9.055475 0.000000 -0.000000 0.000000 -2.267687 0.696391 0.928538 2.123089 -3.074715 4.184104 -1.301206 -0.339531 1.167312 1.775428 5.741321 12.727945 -0.006688 3.423971 24.932569 -24.728963 3.499626 2.587315 -52.075907 -7.578894 21.495546 -95.128139 -77.530310 112.484113 18.002440 -6.066952 -20.661117 26.451773 -1.337239 0.951925 51.271758 3.519190 27.101266 153.864543 81.857227 178.940163 3.095979 14.424248 3.026500 
-0.503875 0.251189 1.003075 92.224675 -0.971921 87.265046 1.878512 -0.417203 4.073337 -3.574252 -3.592986 4.289962 2.669180 9.445889 -8.249714 0.000000 -0.000000 0.000000 -4.953856 -2.866491 -1.290657 0.694656 0.755650 12.995924 4.058800 -6.531224 -8.970268 0.000000 -0.000000 0.000000 -2.198910 0.611659 1.041022 1.987350 -3.106627 3.920637 -1.285802 -0.170649 1.230468 1.545591 5.534485 12.738138 0.170315 3.811522 24.887334 -24.603167 3.565906 2.435775 -52.177256 -7.249776 21.515026 -95.549332 -77.773765 112.894696 20.509172 -4.746234 -19.436421 26.353191 -1.181066 0.767882 51.428876 3.378106 27.166371 153.131432 81.864715 178.021079 2.961073 14.297080 3.258071 
-0.503930 0.253136 1.003026 92.054630 -0.955414 87.340616 1.810936 -0.391139 4.009994 -3.668858 -3.401850 4.304937 2.763668 9.444405 -8.290362 0.000000 -0.000000 0.000000 -5.090861 -2.760113 -1.447181 0.751463 0.754078 13.070399 4.127950 -6.483245 -8.944712 0.000000 -0.000000 0.000000 -2.239703 0.599414 1.281677 1.971379 -3.003782 3.652895 -1.282791 -0.142014 1.198085 1.545051 5.582772 12.706170 0.206162 3.786212 24.955270 -24.588319 3.558987 2.293653 -52.181240 -7.177337 21.535790 -95.549751 -77.825956 112.864237 20.696220 -4.715741 -19.434012 26.339034 -1.094893 0.755468 51.461237 3.474499 27.221733 153.508263 81.920860 178.321499 2.814316 14.182840 3.517722 
-0.503366 0.255092 1.002926 91.884720 -0.929391 87.445909 1.728290 -0.527192 3.980087 -3.742698 -3.248557 4.261203 2.800625 9.591688 -8.369870 0.000000 -0.000000 0.000000 -5.206360 -2.776856 -1.443829 0.746300 0.984874 12.877915 4.214074 -6.357880 -8.888829 0.000000 -0.000000 0.000000 -2.264593 0.744316 1.035186 1.956104 -2.950662 3.793965 -1.314354 -0.212686 1.343544 1.588727 5.690211 12.556140 0.112720 3.816788 24.950594 -24.659313 3.451284 2.256275 -52.095788 -7.360302 21.628777 -95.266924 -78.023198 112.506923 21.305209 -4.632632 -19.464448 26.448587 -1.043552 0.689084 51.306677 3.733211 27.324998 153.637722 81.940585 178.446449 2.338083 14.317519 3.407345 
-0.502530 0.257076 1.002884 91.781332 -0.905066 87.540542 1.705018 -0.416413 4.065488 -3.842443 -3.163934 4.028100 2.837153 9.463948 -8.315949 0.000000 -0.000000 0.000000 -5.304684 -2.639168 -1.402641 0.678868 0.963150 12.682478 4.313979 -6.265747 -8.811749 0.000000 -0.000000 0.000000 -2.270830 0.682367 1.020965 1.868780 -2.994641 3.838336 -1.355944 -0.158392 1.113489 1.601789 5.880626 12.671587 0.112408 4.023544 24.828401 -24.709298 3.495309 2.322616 -52.022931 -7.179655 21.464360 -96.193700 -78.158913 113.373384 19.957350 -5.172247 -18.891843 26.465955 -0.994288 0.722423 51.486968 3.672133 27.354623 154.358876 81.958569 179.033086 3.203547 14.233173 3.718689 
-0.502063 0.260411 1.001591 91.652726 -0.626045 87.996177 1.836612 -0.502193 3.609023 -3.857025 -2.922634 4.009925 2.912159 9.397052 -8.331568 0.000000 -0.000000 0.000000 -5.236357 -2.480870 -1.947554 0.738038 0.919948 12.748060 4.364223 -6.218084 -8.729747 0.000000 -0.000000 0.000000 -1.764598 0.570635 0.528440 1.856706 -2.792211 3.787941 -1.634584 -0.167290 1.247864 1.714536 5.961301 12.565103 -0.134379 3.798295 24.985250 -24.691994 3.596418 2.405669 -52.055753 -7.630059 21.314954 -94.356305 -77.831756 111.904922 17.768343 -6.156355 -19.804055 26.396984 -1.241296 0.855660 51.526582 3.955229 27.327114 155.554813 81.952987 -179.532957 3.639661 14.173936 3.702405 
-0.500962 0.263862 1.001054 91.136019 -0.637158 88.119740 1.715014 -0.266362 3.787040 -4.038289 -2.752660 3.718939 3.049593 9.571613 -8.369117 0.000000 -0.000000 0.000000 -5.348155 -2.402908 -2.032363 0.524668 1.307279 12.624419 4.637722 -6.131717 -8.638465 0.000000 -0.000000 0.000000 -1.813484 0.669948 0.582175 1.752386 -2.687404 3.691810 -1.595886 -0.061805 1.251168 1.336795 5.927502 12.350232 -0.052965 4.257797 24.893387 -24.788624 3.677654 2.121292 -52.130612 -7.382786 21.435925 -94.410974 -77.947096 111.805809 20.142158 -5.257615 -19.076860 26.380948 -1.204006 0.667362 51.528155 3.812987 27.309134 154.369699 81.953528 178.952764 3.554892 14.335103 3.655053 
-0.500935 0.266900 1.001036 90.627474 -0.630633 88.224940 1.543699 -0.235126 3.802678 -4.133814 -2.341811 3.637512 3.150318 9.612090 -8.432653 0.000000 -0.000000 0.000000 -5.522552 -2.083072 -2.238117 0.435298 1.284869 12.655800 4.817436 -5.899887 -8.560926 0.000000 -0.000000 0.000000 -1.896187 0.908360 0.481340 1.821918 -2.458377 3.902823 -1.655189 -0.036265 1.249765 1.556923 6.331331 12.289568 -0.242598 4.026661 24.830264 -24.808864 3.695246 2.250429 -52.297065 -7.846971 21.274893 -93.649243 -77.845697 111.057715 17.012008 -7.104198 -19.613736 26.504455 -1.261068 0.823242 51.476814 3.983154 27.346327 156.848560 82.006332 -178.446027 3.889860 14.225869 3.658405 
-0.501135 0.270899 1.000905 90.372937 -0.609932 88.406930 1.316192 -0.252252 3.545403 -4.227530 -2.232495 3.781172 3.390911 9.831036 -8.538999 0.000000 -0.000000 0.000000 -5.796454 -2.119048 -2.463418 0.454826 1.310238 12.648839 5.204261 -5.738604 -8.412365 0.000000 -0.000000 0.000000 -1.828274 0.944663 0.594164 1.774763 -2.434903 3.751251 -1.706474 0.070952 1.332990 1.479108 6.426460 12.270289 -0.274015 4.170214 24.766476 -24.808953 3.632216 2.242906 -52.465685 -7.804346 21.480591 -93.899013 -77.818993 111.074198 17.149769 -6.741450 -20.116896 26.479815 -1.296869 0.799488 51.476675 3.954670 27.353496 157.908434 81.967033 -177.557729 3.967298 14.279797 3.429049 
-0.500934 0.275099 1.000822 89.934030 -0.522819 88.586799 1.142081 -0.136176 3.442674 -4.282431 -1.999857 3.734685 3.523811 9.938681 -8.643377 0.000000 -0.000000 0.000000 -5.947411 -2.089828 -2.658814 0.365731 1.527342 12.464154 5.169116 -5.468632 -8.237612 0.000000 -0.000000 0.000000 -1.642133 1.000649 0.716048 1.725544 -2.299600 3.581246 -1.748389 0.170034 1.286783 1.358413 6.536286 12.390554 -0.394762 4.382873 24.853481 -24.839904 3.738238 2.104910 -52.491533 -7.736916 21.430107 -93.436727 -77.670722 110.975884 16.237618 -6.902692 -20.009375 26.496585 -1.330890 0.940636 51.295858 4.003591 27.280888 157.636625 81.905551 -177.685460 4.105075 14.091720 3.335743 
-0.500988 0.279862 1.000527 89.515644 -0.505700 88.597646 0.786733 -0.024347 3.414314 -4.201356 -1.842742 3.744248 3.753216 10.053932 -8.533474 0.000000 -0.000000 0.000000 -6.203536 -2.109726 -2.778753 0.270002 1.769180 12.452772 5.405936 -5.263153 -8.131377 0.000000 -0.000000 0.000000 -1.539574 1.123573 1.061137 1.654385 -2.184302 3.489951 -1.766029 0.158928 1.302656 1.228025 6.586045 12.402996 -0.418622 4.662738 24.965301 -24.845188 3.697607 1.943175 -52.606679 -7.645141 21.463033 -93.184242 -77.703555 110.698175 17.090304 -6.999184 -19.611291 26.426657 -1.210560 0.853067 51.272840 3.998727 27.252716 157.435118 82.011065 -178.047481 3.914661 14.260455 3.591606 
-0.506691 0.285048 0.999607 90.811206 0.056035 89.691220 1.304430 -1.674130 0.842133 -4.563718 -1.374933 5.365621 4.143084 9.905491 -8.764699 0.000000 -0.000000 0.000000 -5.876813 -1.915087 -4.160819 0.304687 0.877127 12.610352 5.488642 -5.997577 -8.046221 0.000000 -0.000000 0.000000 -0.974188 0.442065 1.786382 1.911464 -2.631948 1.728505 -1.843256 0.119434 1.900234 1.094010 6.683889 11.636499 -0.547728 4.562340 25.501449 -24.651964 3.876868 1.964551 -53.030063 -8.199344 21.751970 -92.129975 -77.721570 109.992070 16.955889 -7.168083 -20.002251 26.117749 -1.569053 0.250222 51.379071 4.101242 27.581285 157.566911 82.034016 -177.542224 3.420228 14.402583 3.043008 
-0.506268 0.290918 0.999262 90.309138 0.083533 89.775545 0.894494 -1.679169 0.813021 -4.506327 -1.274142 5.357722 4.415018 10.259538 -8.986981 0.000000 -0.000000 0.000000 -6.205259 -1.771374 -4.362347 0.263805 1.139481 12.673355 5.737366 -5.923223 -7.943551 0.000000 -0.000000 0.000000 -0.835872 0.501478 1.932648 1.874517 -2.486272 1.646165 -1.935471 0.177960 1.997943 1.155704 6.911083 11.870615 -0.640168 4.744458 25.559407 -24.559586 3.995648 1.764321 -52.785717 -8.177173 21.873598 -91.897031 -77.216475 109.834414 16.065082 -7.295918 -20.386439 26.101854 -1.499411 0.168604 51.322601 4.041687 27.840823 159.027805 82.122598 -176.405581 3.753432 14.361945 2.982982 
